<?xml version="1.0" encoding="UTF-8" standalone="no"?>
<svg
   version="1.1"
   id="svg322"
   sodipodi:docname="itch_io_cover_image.svg"
   width="630"
   height="500"
   inkscape:version="1.1.1 (3bf5ae0d25, 2021-09-20, custom)"
   inkscape:export-filename="itch_io_cover_image.png"
   inkscape:export-xdpi="96"
   inkscape:export-ydpi="96"
   xmlns:inkscape="http://www.inkscape.org/namespaces/inkscape"
   xmlns:sodipodi="http://sodipodi.sourceforge.net/DTD/sodipodi-0.dtd"
   xmlns="http://www.w3.org/2000/svg"
   xmlns:svg="http://www.w3.org/2000/svg">
  <sodipodi:namedview
     id="namedview324"
     pagecolor="#ffffff"
     bordercolor="#666666"
     borderopacity="1.0"
     inkscape:pageshadow="2"
     inkscape:pageopacity="0.0"
     inkscape:pagecheckerboard="true"
     showgrid="false"
     inkscape:zoom="0.70710678"
     inkscape:cx="304.76302"
     inkscape:cy="362.74578"
     inkscape:window-width="1920"
     inkscape:window-height="1029"
     inkscape:window-x="0"
     inkscape:window-y="27"
     inkscape:window-maximized="1"
     inkscape:current-layer="svg322" />
  <defs
     id="defs2" />
  <rect
     style="fill:#f0e9d2;fill-opacity:1;stroke:#e6ddc4;stroke-width:8;stroke-linecap:butt;stroke-linejoin:round;stroke-miterlimit:4;stroke-dasharray:none;stroke-opacity:1;paint-order:normal;stop-color:#000000"
     id="rect2666"
     width="622"
     height="492"
     x="4"
     y="4" />
  <g
     id="g40786"
     transform="translate(-2.5497782,-3.3586805)">
    <path
       stroke="none"
       fill="#f3f3f3"
       d="m 127.26696,217.62945 q 41.25101,23.06159 85.42532,1.29925 l 12.01801,21.76234 q 22.41197,50.34573 22.73678,121.47936 v 0.64963 q 0,19.16385 -22.73678,32.80592 -22.73677,13.64207 -55.21789,13.64207 -32.48111,0 -55.21789,-13.64207 -22.736774,-13.64207 -22.736774,-32.80592 v -0.64963 q 0.324811,-71.13363 22.736774,-121.47936 6.17142,-13.64206 12.99245,-23.06159 m 9.41952,-12.01801 q -4.87217,-3.24811 -9.09471,-7.47065 -17.21499,-17.21499 -17.21499,-41.57583 0,-24.36083 17.21499,-41.57582 17.21499,-17.539799 41.90063,-17.539799 24.68565,0 42.22545,17.539799 17.5398,17.21499 17.5398,41.57582 0,24.36084 -17.5398,41.57583 l -7.47066,6.49622 -1.29924,0.97443 q -34.42998,9.09471 -66.26147,0"
       id="path96"
       style="fill:#678983;fill-opacity:1;stroke-width:6.49622" />
    <path
       stroke="none"
       fill="#e7e7e7"
       d="m 127.26696,217.62945 9.41952,-12.01801 q 31.83149,9.09471 66.26147,0 l -0.64962,0.32481 10.39395,12.99245 q -44.17431,21.76234 -85.42532,-1.29925"
       id="path98"
       style="fill:#445a56;fill-opacity:1;stroke-width:6.49622" />
  </g>
  <text
     xml:space="preserve"
     style="font-style:normal;font-variant:normal;font-weight:500;font-stretch:normal;font-size:106.667px;line-height:1.25;font-family:Junction;-inkscape-font-specification:'Junction Medium';fill:#678983;fill-opacity:1;stroke:none"
     x="293.97186"
     y="218.88602"
     id="text2981"><tspan
       sodipodi:role="line"
       id="tspan2979"
       x="293.97186"
       y="218.88602"
       style="font-style:normal;font-variant:normal;font-weight:500;font-stretch:normal;font-size:106.667px;font-family:Junction;-inkscape-font-specification:'Junction Medium';fill:#678983;fill-opacity:1">Nim</tspan></text>
  <text
     xml:space="preserve"
     style="font-style:normal;font-variant:normal;font-weight:300;font-stretch:normal;font-size:32px;line-height:1.25;font-family:Junction;-inkscape-font-specification:'Junction Light';fill:#181d31;fill-opacity:1;stroke:none"
     x="298.13187"
     y="292.79797"
     id="text16429"><tspan
       sodipodi:role="line"
       id="tspan16427"
       x="298.13187"
       y="304.79797"
       style="font-style:normal;font-variant:normal;font-weight:300;font-stretch:normal;font-size:32px;font-family:Junction;-inkscape-font-specification:'Junction Light'">a mathematical</tspan><tspan
       sodipodi:role="line"
       x="298.13187"
       y="344.79797"
       id="tspan25755"
       style="font-style:normal;font-variant:normal;font-weight:300;font-stretch:normal;font-size:32px;font-family:Junction;-inkscape-font-specification:'Junction Light'">game of strategy</tspan></text>
</svg>
