<?xml version="1.0" encoding="UTF-8" standalone="no"?>
<!-- Created with Inkscape (http://www.inkscape.org/) -->

<svg
   width="40"
   height="40"
   viewBox="0 0 40 40"
   version="1.1"
   id="SVGRoot"
   inkscape:version="1.1.1 (3bf5ae0d25, 2021-09-20, custom)"
   sodipodi:docname="audio_off.svg"
   xmlns:inkscape="http://www.inkscape.org/namespaces/inkscape"
   xmlns:sodipodi="http://sodipodi.sourceforge.net/DTD/sodipodi-0.dtd"
   xmlns="http://www.w3.org/2000/svg"
   xmlns:svg="http://www.w3.org/2000/svg">
  <sodipodi:namedview
     id="namedview7"
     pagecolor="#808080"
     bordercolor="#666666"
     borderopacity="1.0"
     inkscape:pageshadow="2"
     inkscape:pageopacity="0"
     inkscape:pagecheckerboard="true"
     inkscape:document-units="px"
     showgrid="false"
     units="px"
     width="1920px"
     inkscape:showpageshadow="true"
     inkscape:zoom="7.507117"
     inkscape:cx="28.572886"
     inkscape:cy="31.103818"
     inkscape:window-width="1920"
     inkscape:window-height="1029"
     inkscape:window-x="0"
     inkscape:window-y="27"
     inkscape:window-maximized="1"
     inkscape:current-layer="layer1" />
  <defs
     id="defs2" />
  <g
     inkscape:label="图层 1"
     inkscape:groupmode="layer"
     id="layer1">
    <path
       d="m 14.698,6.010537 c 0.3,-1.03333 1.05,-1.53333 2.25,-1.5 h 13.55 c 2,0 3,0.96667 3,2.9 v 15.1 0.35 l -0.3,1.65 -6.8,-6.8 0.75,-0.2 h 1.35 v -5 h -7.3 l -6.5,-6.5 m -4.7000002,1.05 c 0.4000002,-0.4 0.8833302,-0.6 1.4500002,-0.6 0.56667,0 1.03333,0.2 1.4,0.6 l 23,23 c 0.4,0.36667 0.6,0.83333 0.6,1.4 0,0.56667 -0.2,1.05 -0.6,1.45 -0.36667,0.36667 -0.83333,0.55 -1.4,0.55 -0.56667,0 -1.05,-0.18333 -1.45,-0.55 l -23.0000002,-23 c -0.36667,-0.4 -0.55,-0.88333 -0.55,-1.45 0,-0.56667 0.18333,-1.03333 0.55,-1.4 m -1.5,18.4 0.1,-0.05 c 1.1,-1.06667 2.3000002,-1.73333 3.6000002,-2 h 0.05 l 2.25,0.1 v -6.3 l 4,4 v 8.3 c 0.0667,1.26667 -0.61667,2.53333 -2.05,3.8 l -0.05,0.15 c -1.2,1.16667 -2.58333,1.83333 -4.15,2 h -0.05 c -1.73333,0.16667 -3.1500002,-0.31667 -4.2500002,-1.45 -1.13333,-1.1 -1.6,-2.5 -1.4,-4.2 0.13333,-1.66667 0.78333,-3.11667 1.95,-4.35 m 12.9500002,-1.3 5.45,5.45 c -1.63333,0.0667 -2.98333,-0.46667 -4.05,-1.6 -1,-0.96667 -1.46667,-2.25 -1.4,-3.85"
       style="fill:#ffffff;stroke:none"
       id="path864" />
  </g>
</svg>
