<?xml version="1.0" encoding="UTF-8" standalone="no"?>
<!-- Created with Inkscape (http://www.inkscape.org/) -->

<svg
   width="40"
   height="40"
   viewBox="0 0 40 40"
   version="1.1"
   id="SVGRoot"
   inkscape:version="1.1.1 (3bf5ae0d25, 2021-09-20, custom)"
   sodipodi:docname="audio_on.svg"
   xmlns:inkscape="http://www.inkscape.org/namespaces/inkscape"
   xmlns:sodipodi="http://sodipodi.sourceforge.net/DTD/sodipodi-0.dtd"
   xmlns="http://www.w3.org/2000/svg"
   xmlns:svg="http://www.w3.org/2000/svg">
  <sodipodi:namedview
     id="namedview7"
     pagecolor="#808080"
     bordercolor="#666666"
     borderopacity="1.0"
     inkscape:pageshadow="2"
     inkscape:pageopacity="0"
     inkscape:pagecheckerboard="true"
     inkscape:document-units="px"
     showgrid="false"
     units="px"
     width="1920px"
     inkscape:showpageshadow="true"
     inkscape:zoom="7.507117"
     inkscape:cx="28.572886"
     inkscape:cy="31.103818"
     inkscape:window-width="1920"
     inkscape:window-height="1029"
     inkscape:window-x="0"
     inkscape:window-y="27"
     inkscape:window-maximized="1"
     inkscape:current-layer="layer1" />
  <defs
     id="defs2" />
  <g
     inkscape:label="图层 1"
     inkscape:groupmode="layer"
     id="layer1">
    <path
       d="m 33.4975,7.4105371 v 15.0999989 0.35 c -0.2,1.83333 -0.86667,3.33333 -2,4.5 h -0.1 c -1.2,1.33333 -2.61667,2.06667 -4.25,2.2 h -0.05 c -1.7,0.16667 -3.11667,-0.35 -4.25,-1.55 -1.1,-1.06667 -1.56667,-2.5 -1.4,-4.3 0.16667,-1.6 0.83333,-3 2,-4.2 1.13333,-1.13333 2.36667,-1.8 3.7,-2 h 1.35 v -4.999999 h -10 v 16.999999 c 0.0667,1.26667 -0.61667,2.53333 -2.05,3.8 l -0.05,0.15 c -1.2,1.16667 -2.58333,1.83333 -4.15,2 h -0.05 c -1.73333,0.16667 -3.1500001,-0.31667 -4.2500001,-1.45 -1.13333,-1.1 -1.6,-2.5 -1.4,-4.2 0.13333,-1.66667 0.78333,-3.11667 1.95,-4.35 l 0.1,-0.05 c 1.1,-1.06667 2.3000001,-1.73333 3.6000001,-2 h 0.05 l 2.25,0.1 V 7.5105371 c -0.0667,-2.06667 0.75,-3.06667 2.45,-3 h 13.55 c 2,0 3,0.96667 3,2.9"
       style="fill:#ffffff;stroke:none"
       id="path852" />
  </g>
</svg>
