<?xml version="1.0" encoding="UTF-8" standalone="no"?>
<!-- Created with Inkscape (http://www.inkscape.org/) -->

<svg
   width="40"
   height="40"
   viewBox="0 0 40 40"
   version="1.1"
   id="SVGRoot"
   inkscape:version="1.1.1 (3bf5ae0d25, 2021-09-20, custom)"
   sodipodi:docname="credits.svg"
   xmlns:inkscape="http://www.inkscape.org/namespaces/inkscape"
   xmlns:sodipodi="http://sodipodi.sourceforge.net/DTD/sodipodi-0.dtd"
   xmlns="http://www.w3.org/2000/svg"
   xmlns:svg="http://www.w3.org/2000/svg">
  <sodipodi:namedview
     id="namedview7"
     pagecolor="#808080"
     bordercolor="#666666"
     borderopacity="1.0"
     inkscape:pageshadow="2"
     inkscape:pageopacity="0"
     inkscape:pagecheckerboard="true"
     inkscape:document-units="px"
     showgrid="false"
     units="px"
     width="1920px"
     inkscape:showpageshadow="true"
     inkscape:zoom="7.507117"
     inkscape:cx="28.572886"
     inkscape:cy="31.103818"
     inkscape:window-width="1920"
     inkscape:window-height="1029"
     inkscape:window-x="0"
     inkscape:window-y="27"
     inkscape:window-maximized="1"
     inkscape:current-layer="layer1" />
  <defs
     id="defs2" />
  <g
     inkscape:label="图层 1"
     inkscape:groupmode="layer"
     id="layer1">
    <path
       d="m 32,14.975 c 0,3.3 -1.16667,6.11667 -3.5,8.45 -1.06667,1.1 -2.23333,1.95 -3.5,2.55 v 10.1 l -0.25,0.65 -0.65,0.25 -0.65,-0.2 -3.45,-3.45 -3.45,3.45 -0.65,0.2 -0.65,-0.25 -0.25,-0.65 v -10.05 c -1.3,-0.63333 -2.5,-1.5 -3.6,-2.6 C 9.13333,21.09167 8,18.275 8,14.975 c 0,-3.33333 1.13333,-6.16667 3.4,-8.5 2.33333,-2.3 5.2,-3.45 8.6,-3.45 3.33333,0 6.16667,1.15 8.5,3.45 2.33333,2.33333 3.5,5.16667 3.5,8.5 M 20,9.025 c -1.7,0 -3.13333,0.58333 -4.3,1.75 -1.13333,1.16667 -1.7,2.58333 -1.7,4.25 0,1.63333 0.56667,3.03333 1.7,4.2 1.16667,1.2 2.6,1.8 4.3,1.8 1.66667,0 3.08333,-0.6 4.25,-1.8 1.16667,-1.16667 1.75,-2.56667 1.75,-4.2 0,-1.66667 -0.58333,-3.08333 -1.75,-4.25 C 23.08333,9.60833 21.66667,9.025 20,9.025"
       style="fill:#ffffff;stroke:none"
       id="path1000" />
  </g>
</svg>
