<?xml version="1.0" encoding="UTF-8" standalone="no"?>
<!-- Created with Inkscape (http://www.inkscape.org/) -->

<svg
   width="40"
   height="40"
   viewBox="0 0 40 40"
   version="1.1"
   id="SVGRoot"
   inkscape:version="1.1.1 (3bf5ae0d25, 2021-09-20, custom)"
   sodipodi:docname="exit.svg"
   xmlns:inkscape="http://www.inkscape.org/namespaces/inkscape"
   xmlns:sodipodi="http://sodipodi.sourceforge.net/DTD/sodipodi-0.dtd"
   xmlns="http://www.w3.org/2000/svg"
   xmlns:svg="http://www.w3.org/2000/svg">
  <sodipodi:namedview
     id="namedview7"
     pagecolor="#808080"
     bordercolor="#666666"
     borderopacity="1.0"
     inkscape:pageshadow="2"
     inkscape:pageopacity="0"
     inkscape:pagecheckerboard="true"
     inkscape:document-units="px"
     showgrid="false"
     units="px"
     width="1920px"
     inkscape:showpageshadow="true"
     inkscape:zoom="7.507117"
     inkscape:cx="28.572886"
     inkscape:cy="31.103818"
     inkscape:window-width="1920"
     inkscape:window-height="1029"
     inkscape:window-x="0"
     inkscape:window-y="27"
     inkscape:window-maximized="1"
     inkscape:current-layer="layer1" />
  <defs
     id="defs2" />
  <g
     inkscape:label="图层 1"
     inkscape:groupmode="layer"
     id="layer1">
    <path
       d="m 30.9,7.65 0.85,0.75 v 0.05 c 3.23333,3.23333 4.85,7.15 4.85,11.75 0,4.6 -1.61667,8.5 -4.85,11.7 L 31.7,31.95 C 28.5,35.18333 24.6,36.8 20,36.8 15.4,36.8 11.48333,35.18333 8.25,31.95 5.0166696,28.71667 3.4,24.8 3.4,20.2 3.4,15.7 4.95,11.85 8.05,8.65 L 8.25,8.4 9.05,7.7 C 9.25,7.53333 9.5,7.46667 9.8,7.5 c 0.26667,0 0.48333,0.11667 0.65,0.35 l 2.55,3.05 0.25,0.7 -0.35,0.7 -0.4,0.35 -0.15,0.15 c -1.96667,2.06667 -2.95,4.53333 -2.95,7.4 0,2.93333 1.03333,5.43333 3.1,7.5 2.06667,2.06667 4.56667,3.1 7.5,3.1 2.86667,0 5.31667,-0.98333 7.35,-2.95 l 0.15,-0.15 0.15,-0.15 c 1.96667,-2.03333 2.95,-4.48333 2.95,-7.35 0,-2.93333 -1.03333,-5.43333 -3.1,-7.5 H 27.45 L 27,12.25 26.65,11.55 c 0,-0.26667 0.0833,-0.5 0.25,-0.7 L 29.5,7.8 c 0.16667,-0.23333 0.4,-0.35 0.7,-0.35 l 0.7,0.2 m -8.25,-4.15 0.3,0.7 v 17 l -0.3,0.7 -0.7,0.3 h -4 l -0.7,-0.3 c -0.2,-0.2 -0.3,-0.43333 -0.3,-0.7 v -17 c 0,-0.26667 0.1,-0.5 0.3,-0.7 0.2,-0.2 0.43333,-0.3 0.7,-0.3 h 4 c 0.26667,0 0.5,0.1 0.7,0.3"
       style="fill:#ffffff;stroke:none"
       id="path1062" />
  </g>
</svg>
