<?xml version="1.0" encoding="UTF-8" standalone="no"?>
<svg
   version="1.1"
   id="svg322"
   sodipodi:docname="icon.svg"
   width="64"
   height="64"
   inkscape:version="1.1.1 (3bf5ae0d25, 2021-09-20, custom)"
   inkscape:export-filename="icon.png"
   inkscape:export-xdpi="96"
   inkscape:export-ydpi="96"
   xmlns:inkscape="http://www.inkscape.org/namespaces/inkscape"
   xmlns:sodipodi="http://sodipodi.sourceforge.net/DTD/sodipodi-0.dtd"
   xmlns="http://www.w3.org/2000/svg"
   xmlns:svg="http://www.w3.org/2000/svg">
  <sodipodi:namedview
     id="namedview324"
     pagecolor="#ffffff"
     bordercolor="#666666"
     borderopacity="1.0"
     inkscape:pageshadow="2"
     inkscape:pageopacity="0.0"
     inkscape:pagecheckerboard="true"
     showgrid="false"
     inkscape:zoom="4"
     inkscape:cx="-26.375"
     inkscape:cy="30.625"
     inkscape:window-width="1920"
     inkscape:window-height="1029"
     inkscape:window-x="0"
     inkscape:window-y="27"
     inkscape:window-maximized="1"
     inkscape:current-layer="svg322" />
  <defs
     id="defs2" />
  <rect
     style="fill:#f0e9d2;fill-opacity:1;stroke:#e6ddc4;stroke-width:4;stroke-linecap:round;stroke-linejoin:round;stroke-miterlimit:4;stroke-dasharray:none;stroke-opacity:1;paint-order:markers fill stroke;stop-color:#000000"
     id="rect2666"
     width="56"
     height="56"
     x="4"
     y="4"
     rx="8"
     ry="8" />
  <path
     stroke="none"
     fill="#f3f3f3"
     d="m 25.5,26.5 q 6.35,3.55 13.15,0.2 l 1.85,3.35 q 3.45,7.75 3.5,18.7 v 0.1 Q 44,51.8 40.5,53.9 37,56 32,56 27,56 23.5,53.9 20,51.8 20,48.85 v -0.1 q 0.05,-10.95 3.5,-18.7 0.95,-2.1 2,-3.55 m 1.45,-1.85 Q 26.2,24.15 25.55,23.5 22.9,20.85 22.9,17.1 22.9,13.35 25.55,10.7 28.2,8 32,8 q 3.8,0 6.5,2.7 2.7,2.65 2.7,6.4 0,3.75 -2.7,6.4 l -1.15,1 -0.2,0.15 q -5.3,1.4 -10.2,0"
     id="path16" />
  <path
     stroke="none"
     fill="#e7e7e7"
     d="m 25.5,26.5 1.45,-1.85 q 4.9,1.4 10.2,0 l -0.1,0.05 1.6,2 q -6.8,3.35 -13.15,-0.2"
     id="path18" />
  <path
     stroke="none"
     fill="#f3f3f3"
     d="m 25.5,26.5 q 6.35,3.55 13.15,0.2 l 1.85,3.35 q 3.45,7.75 3.5,18.7 v 0.1 Q 44,51.8 40.5,53.9 37,56 32,56 27,56 23.5,53.9 20,51.8 20,48.85 v -0.1 q 0.05,-10.95 3.5,-18.7 0.95,-2.1 2,-3.55 m 1.45,-1.85 Q 26.2,24.15 25.55,23.5 22.9,20.85 22.9,17.1 22.9,13.35 25.55,10.7 28.2,8 32,8 q 3.8,0 6.5,2.7 2.7,2.65 2.7,6.4 0,3.75 -2.7,6.4 l -1.15,1 -0.2,0.15 q -5.3,1.4 -10.2,0"
     id="path96"
     style="fill:#678983;fill-opacity:1" />
  <path
     stroke="none"
     fill="#e7e7e7"
     d="m 25.5,26.5 1.45,-1.85 q 4.9,1.4 10.2,0 l -0.1,0.05 1.6,2 q -6.8,3.35 -13.15,-0.2"
     id="path98"
     style="fill:#445a56;fill-opacity:1" />
</svg>
