<?xml version="1.0" encoding="UTF-8" standalone="no"?>
<svg
   version="1.1"
   id="svg322"
   sodipodi:docname="normal.svg"
   width="64"
   height="64"
   inkscape:version="1.1.1 (3bf5ae0d25, 2021-09-20, custom)"
   xmlns:inkscape="http://www.inkscape.org/namespaces/inkscape"
   xmlns:sodipodi="http://sodipodi.sourceforge.net/DTD/sodipodi-0.dtd"
   xmlns="http://www.w3.org/2000/svg"
   xmlns:svg="http://www.w3.org/2000/svg">
  <sodipodi:namedview
     id="namedview324"
     pagecolor="#ffffff"
     bordercolor="#666666"
     borderopacity="1.0"
     inkscape:pageshadow="2"
     inkscape:pageopacity="0.0"
     inkscape:pagecheckerboard="0"
     showgrid="false"
     inkscape:zoom="4.0333333"
     inkscape:cx="62.603306"
     inkscape:cy="59.628099"
     inkscape:window-width="1920"
     inkscape:window-height="1029"
     inkscape:window-x="0"
     inkscape:window-y="27"
     inkscape:window-maximized="1"
     inkscape:current-layer="svg322" />
  <defs
     id="defs2" />
  <g
     id="g1463"
     transform="translate(-128,-64)">
    <path
       stroke="none"
       fill="#f3f3f3"
       d="m 153.5,90.5 q 6.35,3.55 13.15,0.2 l 1.85,3.35 q 3.45,7.75 3.5,18.7 v 0.1 q 0,2.95 -3.5,5.05 -3.5,2.1 -8.5,2.1 -5,0 -8.5,-2.1 -3.5,-2.1 -3.5,-5.05 v -0.1 q 0.05,-10.95 3.5,-18.7 0.95,-2.1 2,-3.55 m 1.45,-1.85 q -0.75,-0.5 -1.4,-1.15 -2.65,-2.65 -2.65,-6.4 0,-3.75 2.65,-6.4 2.65,-2.7 6.45,-2.7 3.8,0 6.5,2.7 2.7,2.65 2.7,6.4 0,3.75 -2.7,6.4 l -1.15,1 -0.2,0.15 q -5.3,1.4 -10.2,0"
       id="path16" />
    <path
       stroke="none"
       fill="#e7e7e7"
       d="m 153.5,90.5 1.45,-1.85 q 4.9,1.4 10.2,0 l -0.1,0.05 1.6,2 q -6.8,3.35 -13.15,-0.2"
       id="path18" />
    <path
       stroke="none"
       fill="#f3f3f3"
       d="m 153.5,90.5 q 6.35,3.55 13.15,0.2 l 1.85,3.35 q 3.45,7.75 3.5,18.7 v 0.1 q 0,2.95 -3.5,5.05 -3.5,2.1 -8.5,2.1 -5,0 -8.5,-2.1 -3.5,-2.1 -3.5,-5.05 v -0.1 q 0.05,-10.95 3.5,-18.7 0.95,-2.1 2,-3.55 m 1.45,-1.85 q -0.75,-0.5 -1.4,-1.15 -2.65,-2.65 -2.65,-6.4 0,-3.75 2.65,-6.4 2.65,-2.7 6.45,-2.7 3.8,0 6.5,2.7 2.7,2.65 2.7,6.4 0,3.75 -2.7,6.4 l -1.15,1 -0.2,0.15 q -5.3,1.4 -10.2,0"
       id="path96" />
    <path
       stroke="none"
       fill="#e7e7e7"
       d="m 153.5,90.5 1.45,-1.85 q 4.9,1.4 10.2,0 l -0.1,0.05 1.6,2 q -6.8,3.35 -13.15,-0.2"
       id="path98" />
  </g>
</svg>
