<?xml version="1.0" encoding="UTF-8" standalone="no"?>
<svg
   version="1.1"
   id="svg322"
   sodipodi:docname="disabled.svg"
   width="64"
   height="64"
   inkscape:version="1.1.1 (3bf5ae0d25, 2021-09-20, custom)"
   xmlns:inkscape="http://www.inkscape.org/namespaces/inkscape"
   xmlns:sodipodi="http://sodipodi.sourceforge.net/DTD/sodipodi-0.dtd"
   xmlns="http://www.w3.org/2000/svg"
   xmlns:svg="http://www.w3.org/2000/svg">
  <sodipodi:namedview
     id="namedview324"
     pagecolor="#ffffff"
     bordercolor="#666666"
     borderopacity="1.0"
     inkscape:pageshadow="2"
     inkscape:pageopacity="0.0"
     inkscape:pagecheckerboard="0"
     showgrid="false"
     inkscape:zoom="4.0333333"
     inkscape:cx="62.603306"
     inkscape:cy="59.6281"
     inkscape:window-width="1920"
     inkscape:window-height="1029"
     inkscape:window-x="0"
     inkscape:window-y="27"
     inkscape:window-maximized="1"
     inkscape:current-layer="svg322" />
  <defs
     id="defs2" />
  <g
     id="g1466"
     transform="translate(-128)">
    <path
       stroke="none"
       fill="#f3f3f3"
       d="m 169.2,17.1 q 0,3.75 -2.7,6.4 l -1.15,1 -0.2,0.15 -0.1,0.05 1.6,2 1.85,3.35 q 3.45,7.75 3.5,18.7 v 0.1 q 0,2.95 -3.5,5.05 Q 165,56 160,56 155,56 151.5,53.9 148,51.8 148,48.85 v -0.1 q 0.05,-10.95 3.5,-18.7 0.95,-2.1 2,-3.55 l 1.45,-1.85 q -0.75,-0.5 -1.4,-1.15 -2.65,-2.65 -2.65,-6.4 0,-3.75 2.65,-6.4 Q 156.2,8 160,8 q 3.8,0 6.5,2.7 2.7,2.65 2.7,6.4"
       id="path172" />
  </g>
</svg>
